<?xml version="1.0" encoding="utf-8"?>
<!-- Uploaded to: SVG Repo, www.svgrepo.com, Generator: SVG Repo Mixer Tools -->
<svg width="800px" height="800px" viewBox="0 0 1024 1024" class="icon"  version="1.1" xmlns="http://www.w3.org/2000/svg"><path d="M892.937 316.002v447.525H338.394V167.652h394.663z" fill="#FCE3C3" /><path d="M892.937 775.527H338.395l-12-12V167.652l12-12h394.663l8.162 3.204 159.879 148.349 3.838 8.796v447.526l-12 12z m-542.542-24h530.542v-430.29L728.348 179.652H350.395v571.875z" fill="#300604" /><path d="M733.057 167.652v148.349h159.88z" fill="#ED8F27" /><path d="M892.937 328.001h-159.88l-12-12V167.652l20.162-8.796 159.88 148.349-8.162 20.796z m-147.88-24h117.305L745.057 195.157v108.844z" fill="#300604" /><path d="M206.23 186.859c0 21.025 17.043 38.068 38.068 38.068h31.664-31.664c-21.025 0-38.068 17.044-38.068 38.069v31.664-31.664c0-21.025-17.044-38.069-38.069-38.069h-31.664 31.664c21.025-0.001 38.069-17.044 38.069-38.068v-31.664 31.664z" fill="#ED8F27" /><path d="M219.178 294.655h-25.892v-31.658c0-13.857-11.269-25.125-25.126-25.125h-31.665V211.98h31.665c13.857 0 25.126-11.269 25.126-25.126v-31.657h25.892v31.657c0 13.857 11.268 25.126 25.116 25.126v25.892c-13.848 0-25.116 11.268-25.116 25.125v31.658z m-17.093-69.729a50.857 50.857 0 0 1 4.147 4.146 49.209 49.209 0 0 1 4.138-4.146 49.22 49.22 0 0 1-4.138-4.147 50.711 50.711 0 0 1-4.147 4.147z m73.876 12.947h-31.666V211.98h31.666v25.893z" fill="#ED8F27" /><path d="M447.299 387.858l-28.228-11.979 74.505-175.709 74.014 175.749-28.269 11.899-45.846-108.872z" fill="#B12800" /><path d="M454.267 315.73h75.662v30.664h-75.662z" fill="#B12800" /><path d="M568.225 671.374h-13.37c-13.731-68.13-73.741-118.041-144.493-118.041-77.514 0-141.249 60.121-147.029 136.187h-67.089c-43.881 0-79.587 35.705-79.587 79.595 0 43.881 35.706 79.586 79.587 79.586h371.981c48.889 0 88.663-39.775 88.663-88.663 0-48.889-39.773-88.664-88.663-88.664z" fill="#300604" /><path d="M568.225 820.159H196.244c-28.142 0-51.045-22.902-51.045-51.044 0-28.152 22.903-51.054 51.045-51.054h81.007l14.727-0.865-0.53-16.408c0-65.566 53.348-118.914 118.915-118.914 60.53 0 111.315 45.302 118.125 105.378l1.431 12.663h38.307c33.15 0 60.121 26.972 60.121 60.122 0 33.151-26.971 60.122-60.122 60.122z" fill="#228E9D" /><path d="M503.365 701.774h-28.542c0-36.169-29.424-65.594-65.594-65.594v-28.542c51.909 0 94.136 42.228 94.136 94.136zM215.692 554.474h28.542v67.255h-28.542zM153.951 454.917h28.542v119.801h-28.542zM153.955 592.977h28.542v37.219h-28.542zM153.955 651.994h28.542v21.887h-28.542zM215.693 347.04h28.542v128.828h-28.542zM542.9 448.065h30.664v46.405H542.9zM402.407 445.048h30.664v43.57h-30.664zM477.999 467.384h30.664v21.79h-30.664zM438.583 864.164H565.6v28.542H438.583zM693.638 425.064h136.461v30.664H693.638zM693.638 492.924h136.461v30.664H693.638z" fill="#300604" /><path d="M693.638 590.688h136.461v30.664H693.638z" fill="#300604" /><path d="M693.638 658.549h136.461v30.664H693.638z" fill="#300604" /><path d="M675.249 797.028h88.914v28.542h-88.914z" fill="#300604" /><path d="M152.044 334.067c0 7.775 6.303 14.079 14.079 14.079h11.71-11.71c-7.775 0-14.079 6.303-14.079 14.078v11.71-11.71c0-7.775-6.303-14.078-14.078-14.078h-11.71 11.71c7.775-0.001 14.078-6.304 14.078-14.079v-11.71 11.71z" fill="#ED8F27" /><path d="M156.995 373.933h-9.903v-11.71c0-5.034-4.094-9.128-9.126-9.128h-11.71v-9.903h11.71c5.032 0 9.126-4.094 9.126-9.126v-11.71h9.903v11.71c0 5.032 4.094 9.126 9.128 9.126v9.903c-5.034 0-9.128 4.094-9.128 9.128v11.71z m-6.239-25.788c0.45 0.408 0.88 0.838 1.288 1.288 0.408-0.45 0.838-0.88 1.288-1.288-0.45-0.408-0.88-0.838-1.288-1.288-0.408 0.449-0.838 0.88-1.288 1.288z m27.077 4.951h-11.71v-9.903h11.71v9.903z" fill="#ED8F27" /></svg>